<svg xmlns="http://www.w3.org/2000/svg" xmlns:xlink="http://www.w3.org/1999/xlink" width="110" zoomAndPan="magnify" viewBox="0 0 82.5 82.499998" height="110" preserveAspectRatio="xMidYMid meet" version="1.0"><defs><g/><clipPath id="7760b60190"><path d="M 0 0 L 82.003906 0 L 82.003906 82.003906 L 0 82.003906 Z M 0 0 " clip-rule="nonzero"/></clipPath><clipPath id="946efb18d1"><path d="M 3 0.359375 L 60 0.359375 L 60 51 L 3 51 Z M 3 0.359375 " clip-rule="nonzero"/></clipPath><clipPath id="0940004c69"><rect x="0" width="81" y="0" height="64"/></clipPath></defs><g clip-path="url(#7760b60190)"><path fill="#ffffff" d="M 0 0 L 82.003906 0 L 82.003906 82.003906 L 0 82.003906 Z M 0 0 " fill-opacity="1" fill-rule="nonzero"/><path fill="#f6f4f0" d="M 0 0 L 82.003906 0 L 82.003906 82.003906 L 0 82.003906 Z M 0 0 " fill-opacity="1" fill-rule="nonzero"/></g><g transform="matrix(1, 0, 0, 1, 0, 13)"><g clip-path="url(#0940004c69)"><g clip-path="url(#946efb18d1)"><g fill="#222222" fill-opacity="1"><g transform="translate(0.412841, 50.034137)"><g><path d="M 58.765625 -2.0625 C 58.847656 -1.34375 58.6875 -0.816406 58.28125 -0.484375 C 57.882812 -0.160156 57.347656 0 56.671875 0 L 46.140625 0 C 45.523438 0 45.046875 -0.148438 44.703125 -0.453125 C 44.367188 -0.765625 44.171875 -1.257812 44.109375 -1.9375 L 42.78125 -15.3125 L 34.265625 -1.078125 C 33.867188 -0.378906 33.453125 0.117188 33.015625 0.421875 C 32.585938 0.734375 32.066406 0.890625 31.453125 0.890625 L 30.1875 0.890625 C 29.601562 0.890625 29.09375 0.734375 28.65625 0.421875 C 28.21875 0.117188 27.789062 -0.378906 27.375 -1.078125 L 18.859375 -15.3125 L 17.53125 -1.9375 C 17.46875 -1.257812 17.265625 -0.765625 16.921875 -0.453125 C 16.585938 -0.148438 16.113281 0 15.5 0 L 4.96875 0 C 4.3125 0 3.773438 -0.160156 3.359375 -0.484375 C 2.953125 -0.816406 2.789062 -1.34375 2.875 -2.0625 L 7.875 -47.09375 C 8.050781 -48.394531 8.726562 -49.046875 9.90625 -49.046875 L 12.21875 -49.046875 C 12.894531 -49.046875 13.367188 -48.859375 13.640625 -48.484375 C 13.910156 -48.117188 14.207031 -47.664062 14.53125 -47.125 L 30.828125 -19.90625 L 47.125 -47.125 C 47.4375 -47.664062 47.734375 -48.117188 48.015625 -48.484375 C 48.304688 -48.859375 48.78125 -49.046875 49.4375 -49.046875 L 51.75 -49.046875 C 52.925781 -49.046875 53.597656 -48.394531 53.765625 -47.09375 Z M 58.765625 -2.0625 "/></g></g></g></g><g fill="#222222" fill-opacity="1"><g transform="translate(49.097472, 50.034137)"><g/></g></g><g fill="#222222" fill-opacity="1"><g transform="translate(58.855908, 50.034137)"><g><path d="M 18.609375 -46.609375 L 18.609375 -1.453125 C 18.609375 -0.484375 18.125 0 17.15625 0 L 5.5625 0 C 4.59375 0 4.109375 -0.484375 4.109375 -1.453125 L 4.109375 -46.609375 C 4.109375 -47.585938 4.59375 -48.078125 5.5625 -48.078125 L 17.15625 -48.078125 C 18.125 -48.078125 18.609375 -47.585938 18.609375 -46.609375 Z M 18.609375 -46.609375 "/></g></g></g></g></g></svg>