<svg xmlns="http://www.w3.org/2000/svg" xmlns:xlink="http://www.w3.org/1999/xlink" width="110" zoomAndPan="magnify" viewBox="0 0 82.5 82.499998" height="110" preserveAspectRatio="xMidYMid meet" version="1.0"><defs><g/><clipPath id="bc6f63ffb6"><path d="M 0 0 L 82.003906 0 L 82.003906 82.003906 L 0 82.003906 Z M 0 0 " clip-rule="nonzero"/></clipPath><clipPath id="a405421690"><rect x="0" width="75" y="0" height="49"/></clipPath></defs><g clip-path="url(#bc6f63ffb6)"><path fill="#ffffff" d="M 0 0 L 82.003906 0 L 82.003906 82.003906 L 0 82.003906 Z M 0 0 " fill-opacity="1" fill-rule="nonzero"/><path fill="#f6f4f0" d="M 0 0 L 82.003906 0 L 82.003906 82.003906 L 0 82.003906 Z M 0 0 " fill-opacity="1" fill-rule="nonzero"/></g><g transform="matrix(1, 0, 0, 1, 2, 21)"><g clip-path="url(#a405421690)"><g fill="#222222" fill-opacity="1"><g transform="translate(1.450507, 38.597015)"><g><path d="M 45.015625 -1.578125 C 45.078125 -1.023438 44.953125 -0.625 44.640625 -0.375 C 44.335938 -0.125 43.925781 0 43.40625 0 L 35.34375 0 C 34.875 0 34.507812 -0.113281 34.25 -0.34375 C 33.988281 -0.582031 33.832031 -0.960938 33.78125 -1.484375 L 32.765625 -11.734375 L 26.25 -0.828125 C 25.945312 -0.296875 25.628906 0.0820312 25.296875 0.3125 C 24.960938 0.550781 24.5625 0.671875 24.09375 0.671875 L 23.125 0.671875 C 22.664062 0.671875 22.269531 0.550781 21.9375 0.3125 C 21.613281 0.0820312 21.289062 -0.296875 20.96875 -0.828125 L 14.453125 -11.734375 L 13.421875 -1.484375 C 13.378906 -0.960938 13.226562 -0.582031 12.96875 -0.34375 C 12.707031 -0.113281 12.34375 0 11.875 0 L 3.8125 0 C 3.300781 0 2.890625 -0.125 2.578125 -0.375 C 2.265625 -0.625 2.140625 -1.023438 2.203125 -1.578125 L 6.03125 -36.0625 C 6.164062 -37.0625 6.6875 -37.5625 7.59375 -37.5625 L 9.359375 -37.5625 C 9.867188 -37.5625 10.226562 -37.421875 10.4375 -37.140625 C 10.65625 -36.859375 10.882812 -36.507812 11.125 -36.09375 L 23.609375 -15.25 L 36.09375 -36.09375 C 36.332031 -36.507812 36.5625 -36.859375 36.78125 -37.140625 C 37 -37.421875 37.359375 -37.5625 37.859375 -37.5625 L 39.625 -37.5625 C 40.53125 -37.5625 41.050781 -37.0625 41.1875 -36.0625 Z M 45.015625 -1.578125 "/></g></g></g><g fill="#222222" fill-opacity="1"><g transform="translate(45.193513, 38.597015)"><g/></g></g><g fill="#222222" fill-opacity="1"><g transform="translate(59.121938, 38.597015)"><g><path d="M 14.25 -35.703125 L 14.25 -1.109375 C 14.25 -0.367188 13.878906 0 13.140625 0 L 4.265625 0 C 3.523438 0 3.15625 -0.367188 3.15625 -1.109375 L 3.15625 -35.703125 C 3.15625 -36.441406 3.523438 -36.8125 4.265625 -36.8125 L 13.140625 -36.8125 C 13.878906 -36.8125 14.25 -36.441406 14.25 -35.703125 Z M 14.25 -35.703125 "/></g></g></g></g></g></svg>